<svg xmlns="http://www.w3.org/2000/svg" width="1080" height="1350"><rect width="1080" height="1350" fill="#f4faf7"/><g font-family="Arial"><text x="70" y="95" font-size="42" fill="#0a7c66">AWS web application reference</text><text x="70" y="140" font-size="22" fill="#254638">Conceptual topology. Not deployed infrastructure.</text><rect x="330" y="190" width="420" height="90" rx="10" fill="#0a7c66"/><text x="540" y="245" text-anchor="middle" font-size="30" fill="white">Clients</text><rect x="60" y="350" width="960" height="850" rx="18" fill="none" stroke="#6b48bc" stroke-width="3"/><text x="85" y="395" font-size="26" fill="#6b48bc">VPC</text><rect x="120" y="440" width="840" height="160" fill="#e1f1de" stroke="#5c9b42"/><text x="145" y="480" font-size="24" fill="#325421">Public subnets across two Availability Zones</text><rect x="320" y="510" width="440" height="65" rx="8" fill="#6b48bc"/><text x="540" y="550" text-anchor="middle" font-size="25" fill="white">Application Load Balancer</text><rect x="120" y="660" width="390" height="230" fill="#e5edf8" stroke="#4d78a8"/><rect x="570" y="660" width="390" height="230" fill="#e5edf8" stroke="#4d78a8"/><text x="315" y="705" text-anchor="middle" font-size="24">Private subnet, AZ A</text><text x="765" y="705" text-anchor="middle" font-size="24">Private subnet, AZ B</text><rect x="170" y="750" width="290" height="85" rx="8" fill="#ed8e13"/><rect x="620" y="750" width="290" height="85" rx="8" fill="#ed8e13"/><text x="315" y="803" text-anchor="middle" font-size="24" fill="white">EC2 application</text><text x="765" y="803" text-anchor="middle" font-size="24" fill="white">EC2 application</text><rect x="220" y="970" width="640" height="160" fill="#ece2f8" stroke="#9b41c1"/><text x="540" y="1015" text-anchor="middle" font-size="24">Private database subnets</text><rect x="330" y="1040" width="420" height="65" rx="8" fill="#9b41c1"/><text x="540" y="1080" text-anchor="middle" font-size="25" fill="white">Amazon RDS</text><g fill="none" stroke="#254638" stroke-width="4"><path d="M540 280V510"/><path d="M430 575L315 750M650 575L765 750"/><path d="M315 835L430 1040M765 835L650 1040"/></g><text x="70" y="1260" font-size="21" fill="#0a7c66">VERIQTA. Connections show intended request paths.</text></g></svg>